<svg xmlns="http://www.w3.org/2000/svg" viewBox="0 0 64 64">
  <circle cx="32" cy="32" r="32" fill="#475b74" />
  <circle cx="32" cy="32" r="26" fill="#f3a253" />
  <g fill="white" transform="translate(14, 14) scale(1.4)">
    <path d="M21,14c-1.1,0-2,0.9-2,2v4c0,1.1-0.9,2-2,2H7c-1.1,0-2-0.9-2-2V7c0-1.1,0.9-2,2-2h4c1.1,0,2-0.9,2-2s-0.9-2-2-2H7C4.2,1,2,3.2,2,6v13c0,2.8,2.2,5,5,5h10c2.8,0,5-2.2,5-5v-4C22,14.9,21.1,14,21,14z" />
    <path d="M23,1h-7c-1.1,0-2,0.9-2,2s0.9,2,2,2h3.6l-9.3,9.3c-0.8,0.8-0.8,2,0,2.8C10.5,17.4,11,17.5,11.4,17.5s0.9-0.1,1.3-0.4l9.3-9.3V11c0,1.1,0.9,2,2,2s2-0.9,2-2V3C26,1.9,25.1,1,23,1z" />
  </g>
</svg>